PathFileType	3	(X/Y/Z)	D:\Vicon Setup\UG\Test1\New Session\NewSession09.trc
DataRate	CameraRate	NumFrames	NumMarkers	Units	OrigDataRate	OrigDataStartFrame	OrigNumFrames
100.0	100.0	13	27	mm	100.0	684	911	
Frame#	Time	Sternum			LShoulder			RShoulder			LASIS			RASIS			RPSIS			LPSIS			RKneeLateral			RKneeMedial			RFibulaHead			RMidShank			RAnkleLateral			RAnkleMedial			RHeel			RMT5			RMT2			RToe			LKneeLateral			LKneeMedial			LFibulaHead			LMidShank			LAnkleLateral			LAnkleMedial			LHeel			LMT5			LMT2			LToe			
		X1	Y1	Z1	X2	Y2	Z2	X3	Y3	Z3	X4	Y4	Z4	X5	Y5	Z5	X6	Y6	Z6	X7	Y7	Z7	X8	Y8	Z8	X9	Y9	Z9	X10	Y10	Z10	X11	Y11	Z11	X12	Y12	Z12	X13	Y13	Z13	X14	Y14	Z14	X15	Y15	Z15	X16	Y16	Z16	X17	Y17	Z17	X18	Y18	Z18	X19	Y19	Z19	X20	Y20	Z20	X21	Y21	Z21	X22	Y22	Z22	X23	Y23	Z23	X24	Y24	Z24	X25	Y25	Z25	X26	Y26	Z26	X27	Y27	Z27	
684	6.83	259.69095	1385.7744	-1602.2174	75.345001	1439.2896	-1489.3745	446.92474	1411.8541	-1518.8301	137.49338	996.30481	-1603.6036	397.59894	1004.3245	-1600.9053	324.8157	1017.8463	-1426.5	194.56329	1015.4122	-1421.8243	446.98279	538.46356	-1480.593	322.51758	498.06891	-1525.8544	457.23645	458.2124	-1471.5863	403.80606	287.25049	-1518.1345	475.03354	92.814018	-1459.6458	404.73138	119.10461	-1521.9785	405.78677	61.188488	-1404.5061	553.73682	32.466797	-1596.7642	489.12701	63.242561	-1616.2693	495.01868	44.441914	-1669.121	88.675339	522.3432	-1502.2719	218.33948	494.09	-1526.6403	83.46196	461.70895	-1482.7277	144.28926	300.17908	-1518.8217	79.286201	100.65588	-1449.0491	156.81509	114.06039	-1499.2587	145.63261	63.518196	-1386.4756	13.535767	43.93713	-1572.8033	72.680702	61.666656	-1600.8987	58.778793	41.969482	-1660.5162
685	6.84	259.70099	1385.7455	-1602.2462	75.329803	1439.3003	-1489.4437	446.93085	1411.8586	-1518.8834	137.50311	996.28278	-1603.5696	397.60062	1004.304	-1600.8915	324.81778	1017.8713	-1426.4702	194.55402	1015.4243	-1421.7871	446.9953	538.45294	-1480.5861	322.53397	498.04428	-1525.8259	457.27762	458.18091	-1471.619	403.8222	287.22034	-1518.1138	475.03592	92.808624	-1459.6461	404.74387	119.0874	-1521.9686	405.77612	61.18404	-1404.5016	553.73944	32.467037	-1596.7675	489.1554	63.307816	-1616.3147	495.02002	44.449047	-1669.1272	88.66935	522.33923	-1502.2439	218.34245	494.08878	-1526.6351	83.454605	461.70355	-1482.7072	144.30719	300.15839	-1518.7974	79.272606	100.65644	-1449.0521	156.81476	114.05951	-1499.2578	145.62898	63.509941	-1386.4702	13.546423	43.920475	-1572.8055	72.689865	61.649166	-1600.89	58.783459	41.965965	-1660.5183
686	6.85	259.71686	1385.7183	-1602.2798	75.316208	1439.3074	-1489.5122	446.93945	1411.8644	-1518.9397	137.51756	996.25061	-1603.5385	397.60403	1004.2762	-1600.8755	324.81787	1017.9011	-1426.4368	194.54156	1015.4341	-1421.7538	447.00839	538.44293	-1480.5822	322.55365	498.01349	-1525.8037	457.31555	458.138	-1471.6688	403.83951	287.17993	-1518.0894	475.03802	92.803093	-1459.65	404.75705	119.06333	-1521.9615	405.7597	61.178318	-1404.4991	553.74475	32.466759	-1596.7748	489.18555	63.379242	-1616.3705	495.02448	44.452324	-1669.1357	88.662498	522.33179	-1502.2156	218.35106	494.07803	-1526.6274	83.446358	461.69406	-1482.6866	144.32947	300.12717	-1518.7699	79.25576	100.65369	-1449.0577	156.81624	114.05508	-1499.259	145.62723	63.498512	-1386.4629	13.556817	43.899765	-1572.8079	72.702194	61.623245	-1600.8822	58.789085	41.956013	-1660.5195
687	6.86	259.73688	1385.6942	-1602.3169	75.309082	1439.3121	-1489.5804	446.94943	1411.8706	-1518.9966	137.53442	996.21222	-1603.5103	397.60773	1004.2453	-1600.8583	324.81686	1017.9293	-1426.4056	194.53073	1015.4409	-1421.728	447.02136	538.43359	-1480.5789	322.57385	497.98096	-1525.7917	457.34302	458.09454	-1471.7175	403.85416	287.13596	-1518.0654	475.04031	92.796562	-1459.656	404.76917	119.03631	-1521.9594	405.74268	61.170876	-1404.4977	553.75214	32.464828	-1596.7836	489.20715	63.424625	-1616.412	495.03174	44.449944	-1669.1432	88.657234	522.32001	-1502.1888	218.36435	494.05698	-1526.6138	83.439934	461.68005	-1482.6674	144.35228	300.09055	-1518.7413	79.240738	100.64619	-1449.0647	156.81946	114.04585	-1499.2605	145.62785	63.483768	-1386.4547	13.564913	43.87965	-1572.8098	72.714966	61.594929	-1600.8756	58.795292	41.942127	-1660.5179
688	6.87	259.75766	1385.6721	-1602.3512	75.305511	1439.3184	-1489.6465	446.96042	1411.8763	-1519.0508	137.55089	996.17279	-1603.4849	397.61035	1004.215	-1600.842	324.81534	1017.9496	-1426.3821	194.52414	1015.4439	-1421.7117	447.03235	538.42468	-1480.5736	322.59131	497.95065	-1525.7896	457.35864	458.05878	-1471.7494	403.86435	287.09497	-1518.0443	475.04309	92.788734	-1459.6616	404.77936	119.01103	-1521.9613	405.72974	61.161465	-1404.4965	553.75958	32.459679	-1596.7904	489.21597	63.429504	-1616.4265	495.0412	44.441906	-1669.1462	88.655098	522.30438	-1502.1636	218.38023	494.02777	-1526.592	83.436989	461.66257	-1482.6489	144.37219	300.05457	-1518.7139	79.232132	100.63251	-1449.0714	156.82451	114.03078	-1499.26	145.63051	63.465244	-1386.4471	13.570002	43.863438	-1572.8101	72.72599	61.570274	-1600.8708	58.802151	41.926258	-1660.5135
689	6.88	259.7771	1385.6544	-1602.3831	75.298851	1439.3318	-1489.7058	446.97253	1411.8823	-1519.0996	137.5639	996.13818	-1603.4628	397.61096	1004.1893	-1600.8276	324.81387	1017.9586	-1426.3683	194.52245	1015.4435	-1421.7057	447.03925	538.41614	-1480.5652	322.60297	497.92749	-1525.791	457.36627	458.03308	-1471.7603	403.86987	287.06256	-1518.0261	475.04575	92.779099	-1459.6654	404.78702	118.99242	-1521.9656	405.72421	61.150593	-1404.4955	553.76538	32.451042	-1596.7943	489.21741	63.41087	-1616.422	495.05109	44.43119	-1669.1438	88.656525	522.28693	-1502.139	218.39624	493.99518	-1526.5614	83.437737	461.64484	-1482.6295	144.38661	300.02481	-1518.6881	79.231934	100.61343	-1449.0752	156.83124	114.01081	-1499.2551	145.63475	63.444286	-1386.4418	13.572188	43.853374	-1572.8087	72.73391	61.553955	-1600.868	58.809578	41.91069	-1660.5072
690	6.89	259.79501	1385.6479	-1602.4166	75.290222	1439.3536	-1489.7592	446.98569	1411.8894	-1519.1415	137.57054	996.11401	-1603.4456	397.60849	1004.1703	-1600.8163	324.81332	1017.9568	-1426.364	194.52567	1015.4417	-1421.7095	447.04047	538.40869	-1480.5529	322.60687	497.91611	-1525.7888	457.37094	458.01758	-1471.7513	403.8714	287.04303	-1518.0094	475.04764	92.766747	-1459.6674	404.79181	118.98438	-1521.9694	405.72726	61.139084	-1404.494	553.76923	32.440895	-1596.7946	489.21765	63.391045	-1616.4117	495.05902	44.422283	-1669.137	88.661278	522.27179	-1502.1135	218.41014	493.96533	-1526.5217	83.441154	461.63104	-1482.6064	144.39384	300.00604	-1518.6636	79.238365	100.59325	-1449.0737	156.83852	113.98903	-1499.2446	145.64026	63.424149	-1386.4387	13.571944	43.850853	-1572.8079	72.7379	61.548775	-1600.8669	58.817341	41.898331	-1660.5
691	6.9	259.81168	1385.6548	-1602.4543	75.289795	1439.379	-1489.8153	446.99927	1411.9	-1519.1766	137.56892	996.104	-1603.4333	397.60263	1004.1591	-1600.8077	324.8147	1017.9467	-1426.3685	194.53313	1015.4409	-1421.7196	447.03583	538.40259	-1480.5374	322.60223	497.91782	-1525.7762	457.37372	458.01266	-1471.7252	403.86975	287.03873	-1517.9935	475.04883	92.751984	-1459.666	404.79385	118.98833	-1521.9701	405.73795	61.128006	-1404.4922	553.77203	32.432796	-1596.7911	489.21661	63.376568	-1616.3992	495.06311	44.418098	-1669.1281	88.668449	522.26239	-1502.0851	218.42026	493.94403	-1526.4738	83.445679	461.62433	-1482.577	144.39354	300.00107	-1518.6403	79.247482	100.57713	-1449.0659	156.84454	113.96997	-1499.229	145.64577	63.408585	-1386.4374	13.569667	43.856148	-1572.8088	72.737587	61.555553	-1600.8668	58.824795	41.892258	-1660.4935
692	6.91	259.82687	1385.6737	-1602.4962	75.305534	1439.4017	-1489.8812	447.01276	1411.9158	-1519.2064	137.55893	996.10822	-1603.4254	397.5936	1004.1552	-1600.8026	324.81796	1017.9324	-1426.3782	194.54265	1015.4435	-1421.7301	447.02576	538.39801	-1480.5184	322.58939	497.9299	-1525.7529	457.37036	458.01917	-1471.6852	403.86557	287.04861	-1517.9779	475.04929	92.737701	-1459.6613	404.79318	119.00267	-1521.9667	405.75336	61.119495	-1404.4891	553.77386	32.430168	-1596.7845	489.21243	63.36797	-1616.385	495.0621	44.419319	-1669.1184	88.676147	522.26068	-1502.0525	218.42558	493.93542	-1526.4208	83.449898	461.62518	-1482.5417	144.38647	300.00937	-1518.6183	79.255798	100.56783	-1449.053	156.84723	113.95826	-1499.2113	145.6488	63.400478	-1386.437	13.565487	43.867985	-1572.8114	72.733238	61.57272	-1600.8672	58.830399	41.895172	-1660.4888
693	6.92	259.84006	1385.701	-1602.5414	75.334213	1439.4207	-1489.9556	447.02591	1411.9382	-1519.2327	137.54234	996.12378	-1603.4197	397.58182	1004.1584	-1600.802	324.82132	1017.9189	-1426.3881	194.55087	1015.4509	-1421.7355	447.01071	538.39587	-1480.4972	322.56976	497.94745	-1525.7229	457.35553	458.03842	-1471.6331	403.85883	287.06888	-1517.9636	475.04877	92.728111	-1459.6532	404.78961	119.023	-1521.9596	405.76956	61.116287	-1404.4852	553.77332	32.434784	-1596.7769	489.2027	63.360481	-1616.3671	495.05545	44.425938	-1669.1099	88.681946	522.26666	-1502.0175	218.42555	493.94089	-1526.3685	83.453148	461.63205	-1482.5048	144.37456	300.02759	-1518.5972	79.261307	100.56524	-1449.0385	156.84491	113.95708	-1499.1952	145.64648	63.400723	-1386.437	13.559332	43.883675	-1572.8135	72.725922	61.596653	-1600.8684	58.832222	41.908443	-1660.4868
694	6.93	259.85068	1385.7333	-1602.588	75.364708	1439.4382	-1490.0299	447.03888	1411.9678	-1519.2573	137.52156	996.14539	-1603.4154	397.56775	1004.1673	-1600.806	324.82202	1017.9099	-1426.3948	194.55489	1015.4628	-1421.7328	446.99124	538.39709	-1480.4746	322.54636	497.96576	-1525.6918	457.32776	458.06888	-1471.5736	403.84842	287.0947	-1517.9524	475.04755	92.726578	-1459.6423	404.78333	119.04365	-1521.9503	405.78238	61.11927	-1404.4805	553.76874	32.446243	-1596.7695	489.18271	63.338875	-1616.3372	495.0434	44.437664	-1669.104	88.684334	522.27893	-1501.9823	218.41966	493.95831	-1526.3228	83.455589	461.64246	-1482.4705	144.36005	300.05096	-1518.5776	79.263435	100.56766	-1449.0265	156.83673	113.96691	-1499.1843	145.63663	63.407978	-1386.4373	13.551105	43.89999	-1572.8132	72.716827	61.622955	-1600.8707	58.828915	41.930851	-1660.4869
695	6.94	259.85837	1385.7673	-1602.6361	75.387703	1439.4563	-1490.0977	447.05264	1412.0042	-1519.2833	137.49931	996.16754	-1603.4128	397.55164	1004.1799	-1600.8138	324.81726	1017.9073	-1426.3972	194.55331	1015.4769	-1421.7231	446.96786	538.40259	-1480.4519	322.52319	497.98074	-1525.6635	457.29218	458.10165	-1471.52	403.83328	287.12146	-1517.9454	475.04538	92.734375	-1459.6283	404.77444	119.06015	-1521.9415	405.78842	61.126839	-1404.4766	553.75903	32.46244	-1596.7646	489.1521	63.29911	-1616.2949	495.02756	44.453274	-1669.1012	88.683243	522.29413	-1501.9501	218.40834	493.98383	-1526.2885	83.457497	461.65408	-1482.4434	144.34444	300.07541	-1518.562	79.262939	100.57244	-1449.0195	156.82274	113.98541	-1499.1804	145.61884	63.420116	-1386.4374	13.540992	43.914356	-1572.8102	72.706375	61.64764	-1600.8727	58.820007	41.959091	-1660.4883
696	6.95	259.86368	1385.802	-1602.6854	75.399345	1439.476	-1490.155	447.06906	1412.0459	-1519.3148	137.47833	996.18628	-1603.4128	397.53406	1004.1948	-1600.8246	324.80637	1017.9117	-1426.3936	194.54549	1015.4911	-1421.7101	446.94193	538.41278	-1480.4307	322.50311	497.98972	-1525.641	457.25696	458.12527	-1471.489	403.814	287.14578	-1517.9418	475.04056	92.749283	-1459.6134	404.7634	119.07097	-1521.9353	405.78592	61.136875	-1404.4733	553.74426	32.480743	-1596.7629	489.1192	63.260868	-1616.2548	495.01028	44.471092	-1669.1012	88.679451	522.30841	-1501.9226	218.39348	494.01276	-1526.2689	83.45842	461.66483	-1482.4241	144.32886	300.09814	-1518.5519	79.260567	100.57716	-1449.0189	156.80453	114.00885	-1499.1832	145.595	63.435688	-1386.4364	13.529932	43.925037	-1572.8052	72.694496	61.667732	-1600.8735	58.805984	41.98917	-1660.49
